<svg width="16" height="18" viewBox="0 0 16 18" fill="none" xmlns="http://www.w3.org/2000/svg">
<path fill-rule="evenodd" clip-rule="evenodd" d="M0 14.9472C0 16.4587 1.22531 17.684 2.73681 17.684C4.24831 17.684 5.47363 16.4587 5.47363 14.9472C5.47363 13.6516 4.57338 12.5663 3.3643 12.2827C3.367 12.259 3.36839 12.2348 3.36839 12.2104V10.7367C3.36839 10.7366 3.36839 10.7369 3.36839 10.7367C3.36866 9.92308 4.02834 9.26306 4.84206 9.26306H10.7367C12.4808 9.26306 13.8946 7.84924 13.8946 6.1052V5.40039C15.1016 5.11528 15.9998 4.03094 15.9998 2.73681C15.9998 1.22531 14.7745 0 13.263 0C11.7515 0 10.5262 1.22531 10.5262 2.73681C10.5262 4.03094 11.4244 5.11528 12.6314 5.40039V6.1052C12.6314 7.15162 11.7832 7.99992 10.7367 7.99992H4.84206C4.29947 7.99992 3.79377 8.15781 3.36839 8.43015V5.47363C3.36839 5.44919 3.367 5.42507 3.3643 5.40136C4.57338 5.11772 5.47363 4.0324 5.47363 2.73681C5.47363 1.22531 4.24831 0 2.73681 0C1.22531 0 0 1.22531 0 2.73681C0 4.0324 0.900252 5.11773 2.10933 5.40136C2.10663 5.42507 2.10524 5.44919 2.10524 5.47363L2.10524 10.736C2.10524 10.7363 2.10524 10.7358 2.10524 10.736V12.2104C2.10524 12.2348 2.10663 12.259 2.10933 12.2827C0.900252 12.5663 0 13.6516 0 14.9472ZM2.73681 16.4209C1.92293 16.4209 1.26314 15.7611 1.26314 14.9472C1.26314 14.1333 1.92293 13.4735 2.73681 13.4735C3.5507 13.4735 4.21048 14.1333 4.21048 14.9472C4.21048 15.7611 3.5507 16.4209 2.73681 16.4209ZM2.73681 4.21048C1.92293 4.21048 1.26314 3.5507 1.26314 2.73681C1.26314 1.92293 1.92293 1.26314 2.73681 1.26314C3.5507 1.26314 4.21048 1.92293 4.21048 2.73681C4.21048 3.5507 3.5507 4.21048 2.73681 4.21048ZM11.7894 2.73681C11.7894 3.5507 12.4491 4.21048 13.263 4.21048C14.0769 4.21048 14.7367 3.5507 14.7367 2.73681C14.7367 1.92293 14.0769 1.26314 13.263 1.26314C12.4491 1.26314 11.7894 1.92293 11.7894 2.73681Z" fill="#9195A1"/>
</svg>
