<svg width="11" height="11" viewBox="0 0 11 11" fill="none" xmlns="http://www.w3.org/2000/svg">
<path d="M7.42499 4.95C7.88063 4.95 8.24999 4.58063 8.24999 4.125C8.24999 3.66936 7.88063 3.3 7.42499 3.3C6.96936 3.3 6.59999 3.66936 6.59999 4.125C6.59999 4.58063 6.96936 4.95 7.42499 4.95Z" fill="#3D3D3F"/>
<path d="M3.575 4.95C4.03063 4.95 4.4 4.58063 4.4 4.125C4.4 3.66936 4.03063 3.3 3.575 3.3C3.11936 3.3 2.75 3.66936 2.75 4.125C2.75 4.58063 3.11936 4.95 3.575 4.95Z" fill="#3D3D3F"/>
<path d="M5.5 7.69999C4.686 7.69999 3.9875 7.25449 3.6025 6.59999H2.684C3.124 7.72749 4.2185 8.52499 5.5 8.52499C6.78149 8.52499 7.87599 7.72749 8.31599 6.59999H7.39749C7.01249 7.25449 6.31399 7.69999 5.5 7.69999ZM5.49449 0C2.4585 0 0 2.464 0 5.5C0 8.53599 2.4585 11 5.49449 11C8.53599 11 11 8.53599 11 5.5C11 2.464 8.53599 0 5.49449 0ZM5.5 9.89999C3.069 9.89999 1.1 7.93099 1.1 5.5C1.1 3.069 3.069 1.1 5.5 1.1C7.93099 1.1 9.89999 3.069 9.89999 5.5C9.89999 7.93099 7.93099 9.89999 5.5 9.89999Z" fill="#3D3D3F"/>
</svg>
