<svg width="18" height="24" viewBox="0 0 18 24" fill="none" xmlns="http://www.w3.org/2000/svg">
<path fill-rule="evenodd" clip-rule="evenodd" d="M0 2.75C0 1.23122 1.23122 0 2.75 0H17.25C17.6642 0 18 0.335786 18 0.75V21.25C18 21.6642 17.6642 22 17.25 22H11.25C10.8358 22 10.5 21.6642 10.5 21.25C10.5 20.8358 10.8358 20.5 11.25 20.5H16.5V16.5H3C2.17157 16.5 1.5 17.1716 1.5 18V18.75C1.5 19.4664 1.93064 20.084 2.55028 20.3547C2.92984 20.5206 3.1031 20.9627 2.93726 21.3423C2.77143 21.7218 2.32929 21.8951 1.94972 21.7292C0.803452 21.2284 0 20.0839 0 18.75V2.75ZM16.5 1.5V15H3C2.45357 15 1.94126 15.1461 1.5 15.4013V2.75C1.5 2.05964 2.05964 1.5 2.75 1.5H16.5Z" fill="#24292E"/>
<path d="M4 18.25C4 18.1119 4.11193 18 4.25 18H9.25C9.38807 18 9.5 18.1119 9.5 18.25V23.2591C9.5 23.4634 9.2682 23.5814 9.10296 23.4612L6.89704 21.8569C6.80938 21.7932 6.69062 21.7932 6.60296 21.8569L4.39704 23.4612C4.2318 23.5814 4 23.4634 4 23.2591V18.25Z" fill="#24292E"/>
</svg>
