<svg width="23" height="24" viewBox="0 0 23 24" fill="none" xmlns="http://www.w3.org/2000/svg">
<path fill-rule="evenodd" clip-rule="evenodd" d="M10.26 0.455191C10.9753 -0.15173 12.0247 -0.15173 12.74 0.455191L22.3234 8.5865C22.7526 8.95067 23 9.4851 23 10.048V22.0626C23 23.1212 22.1419 23.9793 21.0833 23.9793H13.7361C13.2068 23.9793 12.7778 23.5502 12.7778 23.021V15.0349H10.2222V23.021C10.2222 23.5502 9.79316 23.9793 9.26389 23.9793H1.91667C0.858121 23.9793 0 23.1212 0 22.0626V10.048C0 9.4851 0.247425 8.95067 0.676626 8.5865L10.26 0.455191ZM11.5 1.91667L1.91667 10.048L1.91667 22.0626H8.30556V14.0765C8.30556 13.5472 8.73462 13.1182 9.26389 13.1182H13.7361C14.2654 13.1182 14.6944 13.5472 14.6944 14.0765V22.0626H21.0833V10.048L11.5 1.91667Z" fill="#9195A1"/>
</svg>
