<svg width="18" height="18" viewBox="0 0 18 18" fill="none" xmlns="http://www.w3.org/2000/svg">
<g clip-path="url(#clip0_4458_4273)">
<path d="M10.6874 18L8.2124 17.6625V3.88126H10.6874V18Z" fill="#B0BDC6"/>
<path d="M12.4594 3.88126H10.6875V18L12.4594 16.2844V3.88126Z" fill="#7D8B91"/>
<path d="M13.1624 0C10.8562 0 3.1499 2.67188 3.1499 2.67188L10.0687 14.0344L18.028 9.25313V4.78125C17.9999 1.77188 16.1999 0 13.1624 0Z" fill="#198CDF"/>
<path d="M4.8375 2.39062C1.8 2.39062 0 4.5 0 7.5375V12.3187L10.0406 14.0344V8.2125C10.0406 5.175 7.90313 2.39062 4.8375 2.39062V2.39062Z" fill="#198CDF"/>
<path d="M17.6343 3.99374L10.3218 7.48124V8.40937L15.7218 5.70937V8.49374L17.6343 7.42499V3.99374Z" fill="#D5D5D5"/>
<path d="M2.72817 6.4125L3.45942 6.49688L3.4313 9.50625L2.95317 9.45L2.9813 7.425V6.91875L2.50317 9.36562L2.02505 9.30937L1.60317 6.72187V7.22813L1.57505 9.25313L1.09692 9.19688L1.12505 6.1875L1.8563 6.27187L2.27817 8.69062L2.72817 6.4125M4.61255 6.6375L5.17505 6.72187L5.99067 9.84375L5.4563 9.75938L5.31567 9.1125L4.41567 9L4.24692 9.59062L3.71255 9.50625L4.61255 6.6375M4.5563 8.52187L5.17505 8.60625L4.8938 7.39687L4.5563 8.52187ZM6.75005 9.95625L6.2438 9.9L6.27192 6.89062L6.77817 6.94688L6.75005 9.95625M7.2563 7.00312L7.76255 7.05938L7.73442 9.50625L8.9438 9.675V10.2094L7.2563 9.98438V7.00312" fill="white"/>
<path d="M5.51245 4.61249L4.24683 5.20312L4.3312 4.35937L5.2312 3.93749C5.5687 3.79687 5.84995 4.47187 5.51245 4.61249Z" fill="#52595E"/>
<path d="M5.1751 4.52812C5.25947 5.23124 4.75322 5.62499 4.33135 5.65312C4.07822 5.68124 3.88135 3.79687 3.88135 3.79687C3.88135 3.79687 4.13447 3.65624 4.33135 3.65624C4.75322 3.62812 5.11885 3.99374 5.1751 4.52812Z" fill="#333333"/>
<path d="M4.34938 5.67513C4.78196 5.62999 5.08689 5.15506 5.03047 4.61434C4.97405 4.07362 4.57764 3.67187 4.14506 3.71701C3.71249 3.76215 3.40756 4.23708 3.46398 4.7778C3.5204 5.31852 3.91681 5.72026 4.34938 5.67513Z" fill="#52595E"/>
<path d="M4.32296 5.42337C4.64739 5.38951 4.87642 5.03645 4.8345 4.63477C4.79259 4.23309 4.49561 3.93491 4.17118 3.96876C3.84674 4.00262 3.61772 4.35568 3.65963 4.75736C3.70154 5.15904 3.99853 5.45722 4.32296 5.42337Z" fill="#697277"/>
</g>
<defs>
<clipPath id="clip0_4458_4273">
<rect width="18" height="18" fill="white"/>
</clipPath>
</defs>
</svg>
