<svg width="12" height="14" viewBox="0 0 12 14" fill="none" xmlns="http://www.w3.org/2000/svg">
<path fill-rule="evenodd" clip-rule="evenodd" d="M2.99985 2.24921C2.99985 2.44811 2.92085 2.63887 2.78019 2.77951C2.63955 2.92015 2.4488 2.99917 2.24989 2.99917C2.05099 2.99917 1.86024 2.92015 1.71959 2.77951C1.57894 2.63887 1.49993 2.44811 1.49993 2.24921C1.49993 2.0503 1.57894 1.85955 1.71959 1.7189C1.86024 1.57825 2.05099 1.49924 2.24989 1.49924C2.4488 1.49924 2.63955 1.57825 2.78019 1.7189C2.92085 1.85955 2.99985 2.0503 2.99985 2.24921ZM2.99985 4.3711C3.50025 4.19419 3.92197 3.84608 4.19052 3.38829C4.45907 2.9305 4.55712 2.39252 4.46738 1.86943C4.37763 1.34633 4.10585 0.871796 3.70007 0.529713C3.29429 0.187621 2.78063 0 2.24989 0C1.71916 0 1.2055 0.187621 0.799721 0.529713C0.393942 0.871796 0.122155 1.34633 0.0324097 1.86943C-0.0573458 2.39252 0.0407193 2.9305 0.309266 3.38829C0.577812 3.84608 0.999541 4.19419 1.49993 4.3711V5.24906C1.49993 5.84576 1.73697 6.41803 2.1589 6.83997C2.58084 7.2619 3.15311 7.49894 3.74981 7.49894H5.24974V9.62683C4.74908 9.80372 4.32708 10.152 4.05835 10.61C3.78962 11.068 3.69146 11.6062 3.7812 12.1296C3.87096 12.653 4.14285 13.1278 4.54882 13.47C4.95479 13.8122 5.4687 14 5.9997 14C6.53071 14 7.04462 13.8122 7.45059 13.47C7.85656 13.1278 8.12849 12.653 8.21819 12.1296C8.30799 11.6062 8.20979 11.068 7.94106 10.61C7.67233 10.152 7.25033 9.80372 6.74966 9.62683V7.49894H8.24959C8.84626 7.49894 9.41853 7.2619 9.84051 6.83997C10.2625 6.41803 10.4995 5.84576 10.4995 5.24906V4.3711C10.9999 4.19419 11.4216 3.84608 11.6901 3.38829C11.9587 2.9305 12.0568 2.39252 11.967 1.86943C11.8772 1.34633 11.6055 0.871796 11.1996 0.529713C10.7939 0.187621 10.2803 0 9.74951 0C9.21874 0 8.70517 0.187621 8.29939 0.529713C7.89357 0.871796 7.62178 1.34633 7.53203 1.86943C7.44228 2.39252 7.54034 2.9305 7.80889 3.38829C8.0774 3.84608 8.49918 4.19419 8.99955 4.3711V5.24906C8.99955 5.44796 8.92055 5.63872 8.77986 5.77936C8.63927 5.92 8.44848 5.99902 8.24959 5.99902H3.74981C3.55091 5.99902 3.36016 5.92 3.21951 5.77936C3.07887 5.63872 2.99985 5.44796 2.99985 5.24906V4.3711ZM6.74966 11.7487C6.74966 11.9476 6.67066 12.1384 6.53 12.279C6.38936 12.4197 6.19861 12.4987 5.9997 12.4987C5.8008 12.4987 5.61005 12.4197 5.4694 12.279C5.32875 12.1384 5.24974 11.9476 5.24974 11.7487C5.24974 11.5498 5.32875 11.359 5.4694 11.2184C5.61005 11.0778 5.8008 10.9988 5.9997 10.9988C6.19861 10.9988 6.38936 11.0778 6.53 11.2184C6.67066 11.359 6.74966 11.5498 6.74966 11.7487ZM9.74951 2.99917C9.9484 2.99917 10.1392 2.92015 10.2798 2.77951C10.4205 2.63887 10.4995 2.44811 10.4995 2.24921C10.4995 2.0503 10.4205 1.85955 10.2798 1.7189C10.1392 1.57825 9.9484 1.49924 9.74951 1.49924C9.55062 1.49924 9.35983 1.57825 9.21924 1.7189C9.07855 1.85955 8.99955 2.0503 8.99955 2.24921C8.99955 2.44811 9.07855 2.63887 9.21924 2.77951C9.35983 2.92015 9.55062 2.99917 9.74951 2.99917Z" fill="#424C5D"/>
</svg>
