<svg width="32" height="26" viewBox="0 0 32 26" fill="none" xmlns="http://www.w3.org/2000/svg">
<g clip-path="url(#clip0_4408_4086)">
<path d="M21.2815 7.10238L24.0631 4.32075L24.2485 3.1495C19.1796 -1.45962 11.122 -0.936997 6.55251 4.24C5.28338 5.67788 4.34176 7.4705 3.83963 9.32163L4.83588 9.18125L10.399 8.26375L10.8285 7.82463C13.3031 5.10688 17.4873 4.74125 20.3445 7.05363L21.2815 7.10238V7.10238Z" fill="#EA4335"/>
<path d="M28.0256 9.23976C27.3863 6.88526 26.0736 4.76861 24.2485 3.14951L20.3445 7.05351C21.1581 7.71832 21.8102 8.55921 22.2515 9.51276C22.6927 10.4663 22.9117 11.5076 22.8919 12.5581V13.2511C24.8106 13.2511 26.3665 14.8068 26.3665 16.7256C26.3665 18.6446 24.8108 20.1613 22.8919 20.1613H15.933L15.2498 20.903V25.0705L15.933 25.7244H22.8918C27.883 25.7633 31.9609 21.7876 31.9998 16.7964C32.0113 15.3069 31.6546 13.8376 30.9613 12.5192C30.2679 11.2008 29.2595 10.0743 28.0256 9.23976" fill="#4285F4"/>
<path d="M8.98374 25.7245H15.9329V20.1612H8.98374C8.49181 20.1612 8.00573 20.0547 7.55886 19.849L6.57299 20.1515L3.77186 22.9331L3.52786 23.8799C5.09874 25.066 7.01536 25.733 8.98374 25.7245Z" fill="#34A853"/>
<path d="M8.98376 7.67813C3.99251 7.708 -0.0296165 11.7785 0.00013346 16.7699C0.00833933 18.1453 0.330382 19.5007 0.941727 20.7329C1.55307 21.965 2.43759 23.0413 3.52788 23.8799L7.55888 19.8491C5.81013 19.0589 5.03288 17.0009 5.82301 15.2521C6.61301 13.5034 8.67126 12.7261 10.4199 13.5161C11.1905 13.8643 11.8077 14.4815 12.1558 15.2521L16.1868 11.2211C15.3407 10.115 14.2503 9.21967 13.0007 8.60504C11.7511 7.9904 10.3763 7.67316 8.98376 7.67813" fill="#FBBC05"/>
</g>
<defs>
<clipPath id="clip0_4408_4086">
<rect width="32" height="25.75" fill="white"/>
</clipPath>
</defs>
</svg>
