<svg width="22" height="22" viewBox="0 0 22 22" fill="none" xmlns="http://www.w3.org/2000/svg">
<path fill-rule="evenodd" clip-rule="evenodd" d="M1.5 11C1.5 8.48044 2.50089 6.06408 4.28249 4.28249C6.06408 2.50089 8.48044 1.5 11 1.5C13.5196 1.5 15.9359 2.50089 17.7175 4.28249C19.4991 6.06408 20.5 8.48044 20.5 11C20.5 13.5196 19.4991 15.9359 17.7175 17.7175C15.9359 19.4991 13.5196 20.5 11 20.5C8.48044 20.5 6.06408 19.4991 4.28249 17.7175C2.50089 15.9359 1.5 13.5196 1.5 11ZM11 0C4.925 0 0 4.925 0 11C0 17.075 4.925 22 11 22C17.075 22 22 17.075 22 11C22 4.925 17.075 0 11 0ZM11 13C11.5304 13 12.0391 12.7893 12.4142 12.4142C12.7893 12.0391 13 11.5304 13 11C13 10.4696 12.7893 9.96086 12.4142 9.58579C12.0391 9.21071 11.5304 9 11 9C10.4696 9 9.96086 9.21071 9.58579 9.58579C9.21071 9.96086 9 10.4696 9 11C9 11.5304 9.21071 12.0391 9.58579 12.4142C9.96086 12.7893 10.4696 13 11 13Z" fill="#23853A"/>
</svg>
