<svg width="18" height="19" viewBox="0 0 18 19" fill="none" xmlns="http://www.w3.org/2000/svg">
<path fill-rule="evenodd" clip-rule="evenodd" d="M8.99638 0C5.95885 0 3.49646 2.46245 3.49646 5.5C3.49646 7.38946 4.44922 9.0564 5.90053 10.0466C2.53597 11.2791 0.112387 14.4629 0.000338491 18.2277C-0.0119841 18.6417 0.313664 18.9873 0.727695 18.9997C1.14172 19.012 1.48735 18.6863 1.49967 18.2723C1.61981 14.2357 4.93031 11 8.99629 11C13.0623 11 16.3728 14.2357 16.4929 18.2723C16.5052 18.6863 16.8509 19.012 17.2649 18.9997C17.6789 18.9873 18.0046 18.6417 17.9922 18.2277C17.8802 14.463 15.4567 11.2791 12.0922 10.0466C13.5435 9.05645 14.4963 7.38949 14.4963 5.5C14.4963 2.46245 12.0339 0 8.99638 0ZM4.99646 5.5C4.99646 3.29085 6.7873 1.5 8.99638 1.5C11.2055 1.5 12.9963 3.29085 12.9963 5.5C12.9963 7.70915 11.2055 9.5 8.99638 9.5C6.7873 9.5 4.99646 7.70915 4.99646 5.5Z" fill="#24292E"/>
</svg>
