<svg width="12" height="13" viewBox="0 0 12 13" fill="none" xmlns="http://www.w3.org/2000/svg">
<path fill-rule="evenodd" clip-rule="evenodd" d="M6.00003 0C3.97418 0 2.33192 1.6423 2.33192 3.66816C2.33192 4.92831 2.96736 6.04006 3.93528 6.70044C1.69133 7.52243 0.0749548 9.64588 0.000225752 12.1567C-0.00799262 12.4329 0.209195 12.6634 0.485327 12.6716C0.76146 12.6798 0.991972 12.4626 1.00019 12.1865C1.08031 9.49436 3.28821 7.33632 5.99997 7.33632C8.71172 7.33632 10.9196 9.49436 10.9997 12.1865C11.008 12.4626 11.2385 12.6798 11.5146 12.6716C11.7907 12.6634 12.0079 12.4329 11.9997 12.1567C11.925 9.64591 10.3086 7.52248 8.06473 6.70047C9.03268 6.04009 9.66814 4.92833 9.66814 3.66816C9.66814 1.6423 8.02588 0 6.00003 0ZM3.33233 3.66816C3.33233 2.19479 4.52671 1.00041 6.00003 1.00041C7.47335 1.00041 8.66773 2.19479 8.66773 3.66816C8.66773 5.14153 7.47335 6.33591 6.00003 6.33591C4.52671 6.33591 3.33233 5.14153 3.33233 3.66816Z" fill="#9195A1"/>
</svg>
