<svg width="18" height="18" viewBox="0 0 18 18" fill="none" xmlns="http://www.w3.org/2000/svg">
<path d="M0.5625 8.83125C0.5625 11.3063 1.60312 14.9062 4.78125 14.9062C7.95938 14.9062 9 11.3063 9 8.83125C9 1.18125 0.5625 1.18125 0.5625 8.83125ZM9 8.83125C9 11.3063 10.0406 14.9062 13.2188 14.9062C16.3969 14.9062 17.4375 11.3063 17.4375 8.83125C17.4375 1.18125 9 1.18125 9 8.83125Z" fill="#DDE8E3"/>
<path d="M0.787598 9.02812C0.787598 11.1656 1.4626 14.4562 4.1626 14.4562C6.8626 14.4562 7.5376 11.1375 7.5376 9.02812C7.50947 1.71562 0.787598 1.71562 0.787598 9.02812M9.2251 9.02812C9.2251 11.1656 9.9001 14.4562 12.6001 14.4562C15.3001 14.4562 15.9751 11.1375 15.9751 9.02812C15.947 1.71562 9.2251 1.71562 9.2251 9.02812Z" fill="white"/>
<path d="M0.787598 9.05626C0.787598 10.8 2.0251 12.15 3.51572 12.15C5.03447 12.15 6.24385 10.8 6.24385 9.05626C6.24385 4.78126 0.787598 4.78126 0.787598 9.05626M9.2251 9.05626C9.2251 10.8 10.4626 12.15 11.9532 12.15C13.472 12.15 14.6813 10.8 14.6813 9.05626C14.6813 4.78126 9.2251 4.78126 9.2251 9.05626" fill="#493B30"/>
</svg>
