<svg width="168" height="24" viewBox="0 0 168 24" fill="none" xmlns="http://www.w3.org/2000/svg">
<path d="M155.997 7.99815C153.793 7.99815 151.995 9.79633 151.995 11.9998C151.995 14.2032 153.793 16.0014 155.997 16.0014C158.2 16.0014 159.998 14.2032 159.998 11.9998C159.998 9.79633 158.2 7.99815 155.997 7.99815ZM167.999 11.9998C167.999 10.3427 168.014 8.70061 167.921 7.04652C167.828 5.12526 167.389 3.42014 165.984 2.01522C164.576 0.607291 162.874 0.172005 160.953 0.0789442C159.296 -0.014117 157.654 0.000892919 156 0.000892919C154.343 0.000892919 152.701 -0.014117 151.047 0.0789442C149.125 0.172005 147.42 0.610293 146.015 2.01522C144.607 3.42314 144.172 5.12526 144.079 7.04652C143.986 8.70361 144.001 10.3457 144.001 11.9998C144.001 13.6539 143.986 15.2989 144.079 16.953C144.172 18.8743 144.61 20.5794 146.015 21.9843C147.423 23.3923 149.125 23.8275 151.047 23.9206C152.704 24.0137 154.346 23.9987 156 23.9987C157.657 23.9987 159.299 24.0137 160.953 23.9206C162.874 23.8275 164.579 23.3893 165.984 21.9843C167.392 20.5764 167.828 18.8743 167.921 16.953C168.017 15.2989 167.999 13.6569 167.999 11.9998V11.9998ZM155.997 18.1568C152.59 18.1568 149.84 15.407 149.84 11.9998C149.84 8.59254 152.59 5.84273 155.997 5.84273C159.404 5.84273 162.154 8.59254 162.154 11.9998C162.154 15.407 159.404 18.1568 155.997 18.1568ZM162.406 7.02851C161.61 7.02851 160.968 6.38609 160.968 5.59057C160.968 4.79504 161.61 4.15262 162.406 4.15262C163.202 4.15262 163.844 4.79504 163.844 5.59057C163.844 5.77947 163.807 5.96656 163.735 6.14112C163.663 6.31569 163.557 6.4743 163.423 6.60787C163.29 6.74145 163.131 6.84736 162.957 6.91954C162.782 6.99172 162.595 7.02875 162.406 7.02851V7.02851Z" fill="black"/>
<path fill-rule="evenodd" clip-rule="evenodd" d="M96 12.067C96 18.033 100.333 22.994 106 24V15.333H103V12H106V9.333C106 6.333 107.933 4.667 110.667 4.667C111.533 4.667 112.467 4.8 113.333 4.933V8H111.8C110.333 8 110 8.733 110 9.667V12H113.2L112.667 15.333H110V24C115.667 22.994 120 18.034 120 12.067C120 5.43 114.6 0 108 0C101.4 0 96 5.43 96 12.067Z" fill="black"/>
<path fill-rule="evenodd" clip-rule="evenodd" d="M49 2.838C49 2.35053 49.1936 1.88303 49.5383 1.53834C49.883 1.19365 50.3505 1 50.838 1H69.16C69.4016 0.999608 69.6409 1.04687 69.8641 1.13907C70.0874 1.23127 70.2903 1.36661 70.4612 1.53734C70.6322 1.70807 70.7677 1.91083 70.8602 2.13401C70.9526 2.3572 71.0001 2.59643 71 2.838V21.16C71.0003 21.4016 70.9529 21.6409 70.8606 21.8642C70.7683 22.0875 70.6328 22.2904 70.462 22.4613C70.2912 22.6322 70.0884 22.7678 69.8651 22.8602C69.6419 22.9526 69.4026 23.0001 69.161 23H50.838C50.5965 23 50.3575 22.9524 50.1344 22.86C49.9113 22.7676 49.7087 22.6321 49.538 22.4613C49.3673 22.2905 49.2319 22.0878 49.1396 21.8647C49.0473 21.6416 48.9999 21.4025 49 21.161V2.838ZM57.708 9.388H60.687V10.884C61.117 10.024 62.217 9.25 63.87 9.25C67.039 9.25 67.79 10.963 67.79 14.106V19.928H64.583V14.822C64.583 13.032 64.153 12.022 63.061 12.022C61.546 12.022 60.916 13.111 60.916 14.822V19.928H57.708V9.388ZM52.208 19.791H55.416V9.25H52.208V19.79V19.791ZM55.875 5.812C55.881 6.08667 55.8322 6.35979 55.7312 6.61532C55.6303 6.87084 55.4794 7.10364 55.2872 7.30003C55.0951 7.49643 54.8657 7.65248 54.6125 7.75901C54.3592 7.86554 54.0872 7.92042 53.8125 7.92042C53.5378 7.92042 53.2658 7.86554 53.0125 7.75901C52.7593 7.65248 52.5299 7.49643 52.3378 7.30003C52.1456 7.10364 51.9947 6.87084 51.8938 6.61532C51.7928 6.35979 51.744 6.08667 51.75 5.812C51.7619 5.27286 51.9844 4.75979 52.3699 4.38269C52.7554 4.00558 53.2732 3.79442 53.8125 3.79442C54.3518 3.79442 54.8696 4.00558 55.2551 4.38269C55.6406 4.75979 55.8631 5.27286 55.875 5.812V5.812Z" fill="black"/>
<path d="M7.539 22.5C16.596 22.5 21.5505 14.9955 21.5505 8.499C21.5505 8.289 21.5505 8.076 21.5415 7.866C22.5061 7.16773 23.3386 6.30323 24 5.313C23.099 5.71028 22.1441 5.97211 21.1665 6.09C22.1963 5.47446 22.9676 4.50595 23.337 3.3645C22.3695 3.93769 21.3105 4.34006 20.2065 4.554C19.4643 3.76354 18.4821 3.23988 17.4121 3.06414C16.3422 2.8884 15.2441 3.07038 14.288 3.58191C13.3319 4.09343 12.5712 4.90595 12.1237 5.89359C11.6761 6.88124 11.5668 7.9889 11.8125 9.045C9.85461 8.94683 7.93922 8.4382 6.19056 7.55212C4.4419 6.66603 2.89903 5.42227 1.662 3.9015C1.03401 4.98613 0.842361 6.2691 1.12597 7.4899C1.40958 8.7107 2.14718 9.7778 3.189 10.4745C2.40831 10.448 1.64478 10.2383 0.96 9.8625V9.93C0.961346 11.0662 1.35496 12.1671 2.07431 13.0466C2.79366 13.9262 3.79462 14.5303 4.908 14.757C4.48539 14.8734 4.04884 14.9315 3.6105 14.9295C3.30148 14.9304 2.99307 14.9018 2.6895 14.844C3.00418 15.8221 3.61691 16.6773 4.44187 17.2897C5.26683 17.9022 6.2627 18.2413 7.29 18.2595C5.54483 19.6302 3.3891 20.3736 1.17 20.37C0.778981 20.3717 0.388235 20.3491 0 20.3025C2.25227 21.7384 4.86795 22.5008 7.539 22.5V22.5Z" fill="black"/>
</svg>
