<svg width="23" height="24" viewBox="0 0 23 24" fill="none" xmlns="http://www.w3.org/2000/svg">
<path fill-rule="evenodd" clip-rule="evenodd" d="M11.3639 0C7.52697 0 4.41658 3.11046 4.41658 6.94737C4.41658 9.33406 5.62007 11.4397 7.45329 12.6904C3.20333 14.2472 0.141962 18.269 0.000427568 23.0244C-0.0151378 23.5474 0.396208 23.984 0.919193 23.9996C1.44218 24.0151 1.87876 23.6038 1.89433 23.0808C2.04608 17.982 6.22776 13.8947 11.3637 13.8947C16.4997 13.8947 20.6814 17.982 20.8331 23.0808C20.8487 23.6038 21.2853 24.0151 21.8083 23.9996C22.3313 23.984 22.7426 23.5474 22.727 23.0244C22.5855 18.269 19.5242 14.2473 15.2743 12.6905C17.1076 11.4397 18.3111 9.33409 18.3111 6.94737C18.3111 3.11046 15.2007 0 11.3639 0ZM6.31132 6.94737C6.31132 4.15686 8.57343 1.89474 11.3639 1.89474C14.1543 1.89474 16.4164 4.15686 16.4164 6.94737C16.4164 9.73787 14.1543 12 11.3639 12C8.57343 12 6.31132 9.73787 6.31132 6.94737Z" fill="#9195A1"/>
</svg>
