<svg width="18" height="18" viewBox="0 0 18 18" fill="none" xmlns="http://www.w3.org/2000/svg">
<path d="M4.52813 13.6406C4.3875 13.6125 4.275 13.5844 4.13437 13.5281C3.99375 13.4719 3.88125 13.4437 3.76875 13.3875C3.51562 13.275 3.29062 13.1344 3.06562 12.9656C2.61562 12.6562 2.25 12.2344 1.96875 11.7281C1.6875 11.25 1.51875 10.6875 1.49063 10.1531C1.4625 9.87187 1.49063 9.61875 1.51875 9.3375C1.54688 9.19687 1.575 9.08437 1.60312 8.94375C1.63125 8.80312 1.6875 8.69062 1.71562 8.55L1.74375 8.94375C1.74375 9.08437 1.77188 9.19687 1.8 9.3375C1.82813 9.59062 1.88438 9.84375 1.94063 10.0687C2.05313 10.5469 2.22188 10.9969 2.475 11.4187C2.72813 11.8406 3.00938 12.2344 3.375 12.6C3.54375 12.7687 3.74063 12.9375 3.9375 13.1062C4.02188 13.1906 4.13438 13.275 4.24688 13.3594L4.52813 13.6406ZM4.44375 14.6531C4.35938 14.7094 4.24687 14.7375 4.13437 14.7656C4.02187 14.7937 3.9375 14.8219 3.825 14.8219C3.62813 14.85 3.40313 14.8781 3.17813 14.85C2.75625 14.8219 2.30625 14.7094 1.94063 14.5125C1.54688 14.3156 1.20938 14.0062 0.984375 13.6406C0.871875 13.4719 0.759375 13.275 0.675 13.0781C0.646875 12.9937 0.61875 12.8812 0.590625 12.7687C0.590625 12.6844 0.5625 12.6 0.5625 12.4875C0.646875 12.5719 0.703125 12.6562 0.759375 12.7125C0.84375 12.7969 0.9 12.8812 0.95625 12.9375C1.09688 13.0781 1.20938 13.2187 1.35 13.3312C1.63125 13.5844 1.9125 13.8094 2.25 13.9781C2.55938 14.1469 2.925 14.2875 3.2625 14.4C3.43125 14.4562 3.62813 14.4844 3.825 14.5406C3.90938 14.5687 4.02188 14.5687 4.10625 14.5969C4.24688 14.625 4.33125 14.625 4.44375 14.6531M10.8 0.984372C10.9406 1.0125 11.0531 1.06875 11.1937 1.125C11.3344 1.18125 11.4469 1.2375 11.5594 1.29375C11.8125 1.43437 12.0375 1.575 12.2625 1.74375C12.7125 2.08125 13.0781 2.53125 13.3313 3.0375C13.5844 3.54375 13.725 4.10625 13.725 4.64062C13.725 4.92187 13.6969 5.175 13.6406 5.45625C13.6125 5.59687 13.5844 5.70937 13.5281 5.85C13.4719 5.99062 13.4437 6.10312 13.3875 6.21562L13.3594 5.82187C13.3594 5.68125 13.3594 5.56875 13.3313 5.42812L13.2469 4.66875C13.1625 4.19062 12.9938 3.7125 12.7688 3.2625C12.5438 2.8125 12.2625 2.41875 11.925 2.05312C11.7563 1.85625 11.5594 1.6875 11.3906 1.49062C11.3062 1.40625 11.1938 1.32187 11.0813 1.2375L10.8 0.984372M13.2469 0.871872C13.3594 0.899997 13.4437 0.928122 13.5281 0.984372C13.6125 1.0125 13.725 1.06875 13.8094 1.125C13.9781 1.2375 14.1469 1.35 14.3156 1.49062C14.625 1.77187 14.8781 2.10937 15.0188 2.50312C15.1875 2.89687 15.2438 3.31875 15.1875 3.74062C15.1594 3.9375 15.1031 4.13437 15.0469 4.33125C15.0187 4.41562 14.9625 4.52812 14.9344 4.6125C14.8781 4.69687 14.85 4.78125 14.7656 4.86562V4.30312C14.7656 4.10625 14.7375 3.9375 14.7375 3.76875C14.6813 3.40312 14.625 3.06562 14.4844 2.75625C14.3438 2.41875 14.175 2.1375 13.9781 1.82812C13.8656 1.6875 13.7531 1.51875 13.6406 1.37812C13.5844 1.29375 13.5281 1.2375 13.4437 1.15312C13.3875 1.0125 13.3031 0.928122 13.2469 0.871872" fill="#42ADE2"/>
<path d="M2.8125 5.0625C2.25 5.31562 2.05313 5.99062 2.30625 6.55312L5.85 13.95L7.81875 13.0219L4.275 5.59687C4.02188 5.03437 3.375 4.78125 2.8125 5.0625M12.1219 10.9406L14.2031 9.95625L10.1531 1.51875C9.87188 0.956245 9.19688 0.70312 8.60625 0.98437C8.04375 1.26562 7.79063 1.94062 8.07188 2.53125L12.1219 10.9406Z" fill="#FFDD67"/>
<path d="M8.63433 0.956251C8.57808 0.984376 8.52183 1.0125 8.46558 1.06875C8.99995 0.928126 9.56245 1.18125 9.81558 1.6875L13.8656 10.125L14.2312 9.95625L10.1812 1.51875C9.89995 0.928127 9.22495 0.675001 8.63433 0.956251" fill="#EBA352"/>
<path d="M7.81885 12.9938L9.98448 11.9531L5.8501 3.34688C5.56885 2.75625 4.8376 2.475 4.24698 2.75625C3.65635 3.0375 3.40323 3.76875 3.68448 4.35938L7.81885 12.9938Z" fill="#FFDD67"/>
<path d="M4.24688 2.78438C4.19063 2.8125 4.13438 2.84063 4.07812 2.89688C4.6125 2.75625 5.23125 3.00938 5.48438 3.54375L8.04375 8.91563L8.6625 9.28125L5.85 3.375C5.56875 2.75625 4.86563 2.50313 4.24688 2.78438" fill="#EBA352"/>
<path d="M9.64698 11.2781L11.8126 10.2375L7.67823 1.63125C7.39698 1.04063 6.66573 0.75938 6.0751 1.06875C5.48448 1.35 5.23135 2.08125 5.5126 2.67188L9.64698 11.2781Z" fill="#FFDD67"/>
<path d="M6.07505 1.04062C6.0188 1.06874 5.96255 1.12499 5.9063 1.15312C6.44067 1.01249 7.05942 1.26562 7.31255 1.79999L10.2094 7.87499L10.8282 8.24062L7.67817 1.63124C7.39692 1.01249 6.66567 0.75937 6.07505 1.04062M2.81255 5.06249C2.7563 5.09062 2.70005 5.11874 2.6438 5.17499C3.15005 5.03437 3.68442 5.28749 3.90942 5.79374L6.0188 10.2094L6.63755 10.575L4.27505 5.62499C4.02192 5.03437 3.37505 4.78124 2.81255 5.06249Z" fill="#EBA352"/>
<path d="M17.1 4.21874C16.3406 3.62812 15.1031 4.27499 14.4843 6.29999C14.0625 7.70624 14.0062 8.12812 13.1062 8.54999L12.6 7.50937C12.6 7.50937 4.61247 11.3625 4.92185 11.9812C4.92185 11.9812 5.8781 14.9625 7.50935 16.3406C9.9281 18.4219 15.5812 16.2 15.8343 10.8281C15.975 7.70624 17.9156 4.86562 17.1 4.21874Z" fill="#FFDD67"/>
<path d="M17.1 4.21876C16.9594 4.10626 16.7907 4.05001 16.6219 4.02188C16.65 4.05001 16.7063 4.05001 16.7344 4.07813C17.5782 4.72501 16.7063 6.21563 16.2282 7.56563C15.8344 8.63438 15.4969 9.73126 15.5532 10.8C15.7782 15.4688 11.0813 17.6906 8.2688 16.8469C11.025 18 16.1438 15.8063 15.9188 10.9406C15.8625 9.87188 16.1719 8.83126 16.5938 7.70626C17.0438 6.35626 17.9157 4.86563 17.1 4.21876" fill="#EBA352"/>
<path d="M13.3593 8.4375C11.6156 8.63437 9.05619 11.1375 10.8562 13.8656C9.53432 11.1094 11.6999 9.25313 13.0781 8.60625C13.2187 8.49375 13.3593 8.4375 13.3593 8.4375" fill="#EBA352"/>
</svg>
