<svg width="164" height="160" viewBox="0 0 164 160" fill="none" xmlns="http://www.w3.org/2000/svg">
<path d="M81.9997 0C62.5287 0.00080741 43.6933 6.92988 28.8637 19.5474C14.0342 32.1649 4.1781 49.6475 1.05911 68.8671C-2.05989 88.0866 1.76172 107.789 11.8401 124.449C21.9185 141.108 37.596 153.638 56.0675 159.796C60.1675 160.514 61.705 158.054 61.705 155.901C61.705 153.954 61.6024 147.496 61.6024 140.629C40.9999 144.421 35.67 135.607 34.03 130.994C32.2102 126.508 29.3255 122.533 25.625 119.412C22.7551 117.874 18.6551 114.082 25.5225 113.979C28.1447 114.264 30.6597 115.176 32.8544 116.639C35.049 118.102 36.8587 120.073 38.13 122.384C39.2515 124.399 40.7595 126.172 42.5677 127.603C44.3759 129.034 46.4486 130.094 48.6672 130.723C50.8857 131.351 53.2065 131.536 55.4964 131.266C57.7864 130.996 60.0006 130.276 62.0121 129.149C62.3671 124.98 64.225 121.083 67.2398 118.182C48.9949 116.132 29.93 109.059 29.93 77.6947C29.8148 69.5451 32.822 61.6603 38.335 55.6574C35.8281 48.5744 36.1214 40.8014 39.155 33.9275C39.155 33.9275 46.0222 31.7749 61.7048 42.3324C75.1223 38.6423 89.287 38.6423 102.705 42.3324C118.387 31.6725 125.254 33.9275 125.254 33.9275C128.288 40.8013 128.582 48.5745 126.074 55.6574C131.604 61.6501 134.614 69.5418 134.479 77.6947C134.479 109.162 115.312 116.132 97.0671 118.182C99.024 120.165 100.531 122.547 101.486 125.164C102.441 127.782 102.822 130.574 102.602 133.352C102.602 144.319 102.499 153.134 102.499 155.902C102.499 158.054 104.037 160.617 108.137 159.797C126.576 153.588 142.208 141.029 152.244 124.361C162.279 107.693 166.065 88.0004 162.924 68.7995C159.783 49.5985 149.921 32.1386 135.098 19.5365C120.275 6.93428 101.456 0.0101262 81.9997 0V0Z" fill="black"/>
</svg>
