<svg width="24" height="24" viewBox="0 0 24 24" fill="none" xmlns="http://www.w3.org/2000/svg">
<path d="M17.6136 15.5126C19.066 13.5307 19.7165 11.0735 19.435 8.63259C19.1535 6.19168 17.9607 3.94707 16.0953 2.34782C14.2299 0.748572 11.8295 -0.08737 9.37422 0.00723583C6.91895 0.101842 4.58994 1.12002 2.85313 2.85807C1.11633 4.59611 0.0998185 6.92585 0.00696952 9.38119C-0.0858794 11.8365 0.75178 14.2364 2.35236 16.1006C3.95295 17.9649 6.19841 19.156 8.63952 19.4358C11.0806 19.7156 13.5374 19.0633 15.5182 17.6095H15.5167C15.5617 17.6695 15.6097 17.7265 15.6637 17.782L21.4385 23.5568C21.7197 23.8382 22.1013 23.9964 22.4992 23.9965C22.897 23.9967 23.2787 23.8388 23.5601 23.5575C23.8416 23.2763 23.9998 22.8947 23.9999 22.4968C24.0001 22.0989 23.8421 21.7173 23.5609 21.4358L17.7861 15.6611C17.7325 15.6068 17.6748 15.5567 17.6136 15.5111V15.5126ZM18.0006 9.74682C18.0006 10.8302 17.7872 11.9029 17.3726 12.9038C16.9581 13.9047 16.3504 14.8142 15.5843 15.5802C14.8183 16.3463 13.9089 16.9539 12.908 17.3685C11.9071 17.7831 10.8343 17.9965 9.75095 17.9965C8.66759 17.9965 7.59484 17.7831 6.59394 17.3685C5.59305 16.9539 4.68361 16.3463 3.91756 15.5802C3.1515 14.8142 2.54384 13.9047 2.12925 12.9038C1.71467 11.9029 1.50129 10.8302 1.50129 9.74682C1.50129 7.55888 2.37044 5.46054 3.91756 3.91343C5.46467 2.36632 7.563 1.49716 9.75095 1.49716C11.9389 1.49716 14.0372 2.36632 15.5843 3.91343C17.1315 5.46054 18.0006 7.55888 18.0006 9.74682V9.74682Z" fill="#0C64C6"/>
</svg>
