<svg width="16" height="15" viewBox="0 0 16 15" fill="none" xmlns="http://www.w3.org/2000/svg">
<path fill-rule="evenodd" clip-rule="evenodd" d="M7.78769 0C7.98599 0 8.16709 0.113608 8.25485 0.293055L10.3792 4.63679L15.1293 5.33334C15.3256 5.36211 15.4886 5.50082 15.5499 5.69114C15.6111 5.88145 15.56 6.09038 15.418 6.23006L11.9808 9.61118L12.7922 14.3854C12.8258 14.5826 12.7454 14.782 12.585 14.8996C12.4246 15.0172 12.2119 15.0327 12.0363 14.9396L7.78769 12.6855L3.53903 14.9396C3.36351 15.0327 3.15083 15.0172 2.9904 14.8996C2.82997 14.782 2.74963 14.5826 2.78315 14.3854L3.59457 9.61118L0.157338 6.23006C0.0153393 6.09038 -0.0357648 5.88145 0.0255125 5.69114C0.0867899 5.50082 0.249821 5.36211 0.446058 5.33334L5.1962 4.63679L7.32053 0.293055C7.40829 0.113608 7.58939 0 7.78769 0ZM7.78769 1.71361L6.00931 5.34997C5.93343 5.50513 5.78674 5.61268 5.61706 5.63756L1.64048 6.22067L4.51796 9.05118C4.64075 9.17196 4.69677 9.34597 4.66779 9.51651L3.98851 13.5132L7.54527 11.6262C7.69704 11.5457 7.87835 11.5457 8.03011 11.6262L11.5869 13.5132L10.9076 9.51651C10.8786 9.34597 10.9346 9.17196 11.0574 9.05118L13.9349 6.22067L9.95832 5.63756C9.78864 5.61268 9.64195 5.50513 9.56607 5.34997L7.78769 1.71361Z" fill="#75839D"/>
</svg>
