<svg width="19" height="18" viewBox="0 0 19 18" fill="none" xmlns="http://www.w3.org/2000/svg">
<path fill-rule="evenodd" clip-rule="evenodd" d="M9.34522 0C9.58318 0 9.8005 0.136329 9.90581 0.351666L12.455 5.56414L18.1552 6.4C18.3907 6.43453 18.5863 6.60098 18.6598 6.82936C18.7334 7.05774 18.672 7.30845 18.5016 7.47606L14.377 11.5334L15.3507 17.2625C15.3909 17.4992 15.2945 17.7384 15.102 17.8795C14.9095 18.0206 14.6542 18.0393 14.4436 17.9275L9.34522 15.2226L4.24684 17.9275C4.03621 18.0393 3.78099 18.0206 3.58848 17.8795C3.39597 17.7384 3.29956 17.4992 3.33978 17.2625L4.31349 11.5334L0.188805 7.47606C0.0184072 7.30845 -0.0429178 7.05774 0.030615 6.82936C0.104148 6.60098 0.299785 6.43453 0.535269 6.4L6.23544 5.56414L8.78463 0.351666C8.88994 0.136329 9.10727 0 9.34522 0ZM9.34522 2.05634L7.21117 6.41996C7.12011 6.60615 6.94409 6.73521 6.74047 6.76506L1.96858 7.4648L5.42155 10.8614C5.56889 11.0063 5.63612 11.2152 5.60134 11.4198L4.78621 16.2159L9.05432 13.9515C9.23644 13.8549 9.45401 13.8549 9.63613 13.9515L13.9042 16.2159L13.0891 11.4198C13.0543 11.2152 13.1216 11.0063 13.2689 10.8614L16.7219 7.4648L11.95 6.76506C11.7464 6.73521 11.5703 6.60615 11.4793 6.41996L9.34522 2.05634Z" fill="#24292E"/>
</svg>
