<svg width="18" height="20" viewBox="0 0 18 20" fill="none" xmlns="http://www.w3.org/2000/svg">
<path d="M14.3979 4.42607e-08C14.9979 -5.91229e-05 15.5884 0.149758 16.1157 0.435846C16.6431 0.721933 17.0906 1.13523 17.4177 1.6382C17.7448 2.14116 17.941 2.71787 17.9886 3.31594C18.0362 3.91402 17.9337 4.51451 17.6903 5.06288C17.4469 5.61125 17.0703 6.09014 16.5949 6.45604C16.1194 6.82194 15.5601 7.06328 14.9676 7.15812C14.3752 7.25297 13.7685 7.19832 13.2026 6.99914C12.6366 6.79996 12.1294 6.46256 11.727 6.01758L7.03921 8.69572C7.25877 9.39646 7.25877 10.1476 7.03921 10.8483L11.726 13.5285C12.3219 12.8701 13.14 12.455 14.0233 12.363C14.9066 12.271 15.7927 12.5085 16.5115 13.03C17.2303 13.5515 17.7311 14.3202 17.9177 15.1885C18.1043 16.0567 17.9636 16.9633 17.5225 17.734C17.0815 18.5048 16.3712 19.0855 15.5282 19.3646C14.6851 19.6436 13.7686 19.6014 12.9548 19.2459C12.141 18.8904 11.4872 18.2469 11.1189 17.4387C10.7507 16.6306 10.694 15.7149 10.9597 14.8676L6.273 12.1864C5.78486 12.7261 5.14466 13.1053 4.43674 13.274C3.72883 13.4428 2.9864 13.3931 2.30728 13.1315C1.62816 12.87 1.0442 12.4089 0.632327 11.8089C0.220457 11.2089 0 10.4982 0 9.77047C0 9.04273 0.220457 8.33205 0.632327 7.73207C1.0442 7.13209 1.62816 6.67096 2.30728 6.40941C2.9864 6.14787 3.72883 6.09818 4.43674 6.26691C5.14466 6.43563 5.78486 6.81485 6.273 7.3546L10.9597 4.67646C10.7911 4.13716 10.7518 3.56575 10.8449 3.00843C10.9379 2.4511 11.1608 1.92349 11.4955 1.46825C11.8302 1.013 12.2673 0.64289 12.7715 0.387829C13.2757 0.132767 13.8329 -8.85308e-05 14.3979 4.42607e-08V4.42607e-08ZM14.3979 13.8844C13.8518 13.8844 13.3281 14.1013 12.942 14.4874C12.5559 14.8736 12.3389 15.3973 12.3389 15.9434C12.3389 16.4894 12.5559 17.0132 12.942 17.3993C13.3281 17.7854 13.8518 18.0024 14.3979 18.0024C14.944 18.0024 15.4677 17.7854 15.8539 17.3993C16.24 17.0132 16.4569 16.4894 16.4569 15.9434C16.4569 15.3973 16.24 14.8736 15.8539 14.4874C15.4677 14.1013 14.944 13.8844 14.3979 13.8844V13.8844ZM3.60103 7.71353C3.05495 7.71353 2.53124 7.93046 2.1451 8.3166C1.75896 8.70274 1.54203 9.22645 1.54203 9.77253C1.54203 10.3186 1.75896 10.8423 2.1451 11.2285C2.53124 11.6146 3.05495 11.8315 3.60103 11.8315C4.14711 11.8315 4.67083 11.6146 5.05696 11.2285C5.4431 10.8423 5.66003 10.3186 5.66003 9.77253C5.66003 9.22645 5.4431 8.70274 5.05696 8.3166C4.67083 7.93046 4.14711 7.71353 3.60103 7.71353V7.71353ZM14.3979 1.54271C13.8518 1.54271 13.3281 1.75964 12.942 2.14577C12.5559 2.53191 12.3389 3.05563 12.3389 3.60171C12.3389 4.14779 12.5559 4.6715 12.942 5.05764C13.3281 5.44378 13.8518 5.6607 14.3979 5.6607C14.944 5.6607 15.4677 5.44378 15.8539 5.05764C16.24 4.6715 16.4569 4.14779 16.4569 3.60171C16.4569 3.05563 16.24 2.53191 15.8539 2.14577C15.4677 1.75964 14.944 1.54271 14.3979 1.54271V1.54271Z" fill="#0C64C6"/>
</svg>
