<svg width="29" height="29" viewBox="0 0 29 29" fill="none" xmlns="http://www.w3.org/2000/svg">
<path fill-rule="evenodd" clip-rule="evenodd" d="M0.337664 17.83C-0.316742 16.6966 0.00611079 15.2507 1.08052 14.5033L21.28 0.451402C22.4714 -0.377408 24.1149 -0.0303586 24.8695 1.20938L28.4293 7.05772C29.2061 8.33392 28.7075 10.0019 27.3578 10.6425L4.99073 21.2574C3.80507 21.8201 2.38605 21.378 1.72985 20.2414L0.337664 17.83ZM6.96621 12.7099L16.8409 5.84046L20.438 11.8357L9.4674 17.0421L6.96621 12.7099ZM5.41011 13.7924L2.15919 16.0539C1.89059 16.2408 1.80988 16.6022 1.97348 16.8856L3.36566 19.2969C3.52971 19.5811 3.88447 19.6916 4.18088 19.5509L7.7554 17.8546L5.41011 13.7924ZM22.1526 11.022L18.395 4.75933L22.3587 2.00199C22.6565 1.79479 23.0674 1.88155 23.256 2.19148L26.8158 8.03982C27.01 8.35888 26.8854 8.77587 26.5479 8.93601L22.1526 11.022Z" fill="#9195A1"/>
<path d="M21.4266 27.5773C21.8657 27.2958 21.9935 26.7116 21.712 26.2725L16.6749 18.4162C16.4215 18.021 15.9164 17.8719 15.489 18.0662L12.0261 19.6402C11.8625 19.7146 11.7236 19.834 11.6255 19.9845L7.53304 26.2668C7.24833 26.7038 7.37184 27.2889 7.80889 27.5736C8.24594 27.8583 8.83104 27.7348 9.11574 27.2978L13.0581 21.246L13.7009 20.9538V28.0555C13.7009 28.5771 14.1237 29 14.6453 29C15.1669 29 15.5898 28.5771 15.5898 28.0555V20.2233L20.1218 27.2919C20.4033 27.731 20.9875 27.8588 21.4266 27.5773Z" fill="#9195A1"/>
</svg>
