<svg width="25" height="27" viewBox="0 0 25 27" fill="none" xmlns="http://www.w3.org/2000/svg">
<path fill-rule="evenodd" clip-rule="evenodd" d="M12.5 0C7.89809 0 3.75 3.20682 3.75 7.5V13.1736C3.75 13.9757 3.5126 14.7598 3.0677 15.4271L0.318599 19.5507C0.110856 19.8624 0 20.2285 0 20.603C0 21.6507 0.849311 22.5 1.89699 22.5H8.125C8.125 24.9162 10.0838 26.875 12.5 26.875C14.9162 26.875 16.875 24.9162 16.875 22.5H23.103C24.1507 22.5 25 21.6507 25 20.603C25 20.2285 24.8891 19.8624 24.6814 19.5507L21.9323 15.4271C21.4874 14.7598 21.25 13.9757 21.25 13.1736V7.5C21.25 3.20682 17.1019 0 12.5 0ZM5.625 7.5C5.625 4.54445 8.60318 1.875 12.5 1.875C16.3968 1.875 19.375 4.54445 19.375 7.5V13.1736C19.375 14.3458 19.722 15.4918 20.3722 16.4672L23.1213 20.5908C23.1237 20.5944 23.125 20.5987 23.125 20.603C23.125 20.6078 23.1237 20.6113 23.1237 20.6113C23.1237 20.6113 23.1212 20.6159 23.1186 20.6186C23.1159 20.6212 23.1113 20.6237 23.1113 20.6237C23.1113 20.6237 23.1078 20.625 23.103 20.625H1.89699C1.89222 20.625 1.88872 20.6237 1.88872 20.6237C1.88872 20.6237 1.88411 20.6212 1.88144 20.6186C1.87877 20.6159 1.87634 20.6113 1.87634 20.6113C1.87634 20.6113 1.875 20.6078 1.875 20.603C1.875 20.5987 1.87629 20.5944 1.87869 20.5908L4.6278 16.4672C5.27802 15.4918 5.625 14.3458 5.625 13.1736V7.5ZM15 22.5H10C10 23.8807 11.1193 25 12.5 25C13.8807 25 15 23.8807 15 22.5Z" fill="#9195A1"/>
</svg>
