<svg width="16" height="15" viewBox="0 0 16 15" fill="none" xmlns="http://www.w3.org/2000/svg">
<path d="M15.2935 6.80311C15.4697 6.67182 15.6004 6.48868 15.6673 6.27935C15.7342 6.07003 15.7339 5.84501 15.6665 5.63587C15.599 5.42672 15.4678 5.24393 15.2912 5.11312C15.1146 4.98231 14.9015 4.91005 14.6818 4.90646L10.4144 4.74524C10.3934 4.7438 10.3733 4.73631 10.3564 4.72369C10.3396 4.71107 10.3268 4.69386 10.3195 4.67412L8.84489 0.691163C8.7708 0.488525 8.63623 0.313548 8.4594 0.189924C8.28257 0.0663003 8.07202 0 7.85627 0C7.64051 0 7.42996 0.0663003 7.25313 0.189924C7.0763 0.313548 6.94173 0.488525 6.86764 0.691163L5.39774 4.68834C5.39047 4.70808 5.37765 4.7253 5.36083 4.73792C5.344 4.75054 5.32389 4.75802 5.3029 4.75947L1.03545 4.92068C0.815725 4.92427 0.602634 4.99654 0.426054 5.12735C0.249473 5.25815 0.118259 5.44095 0.0508098 5.65009C-0.0166398 5.85924 -0.0169424 6.08425 0.0499443 6.29358C0.116831 6.5029 0.247553 6.68605 0.423781 6.81733L3.77136 9.44893C3.78812 9.46211 3.80064 9.47992 3.80738 9.50014C3.81412 9.52037 3.81479 9.54213 3.80929 9.56273L2.65708 13.6453C2.59737 13.8532 2.60316 14.0744 2.67365 14.2789C2.74414 14.4834 2.87591 14.6612 3.05104 14.7881C3.22617 14.9151 3.43615 14.985 3.65242 14.9883C3.86869 14.9917 4.08075 14.9284 4.25975 14.807L7.79699 12.4361C7.81442 12.4241 7.83509 12.4177 7.85627 12.4177C7.87744 12.4177 7.89811 12.4241 7.91554 12.4361L11.4528 14.807C11.6294 14.9325 11.8407 15 12.0573 15C12.274 15 12.4853 14.9325 12.6619 14.807C12.8371 14.6812 12.969 14.5043 13.0394 14.3005C13.1099 14.0967 13.1155 13.8761 13.0554 13.669L11.8938 9.57221C11.8876 9.55164 11.8879 9.52968 11.8947 9.50931C11.9015 9.48895 11.9144 9.47117 11.9317 9.45841L15.2935 6.80311Z" fill="#F9C511"/>
</svg>
