<svg width="24" height="24" viewBox="0 0 24 24" fill="none" xmlns="http://www.w3.org/2000/svg">
<g clip-path="url(#clip0_4416_4346)">
<path d="M19.9721 4.07475C17.8733 1.97595 15.0267 0.796858 12.0586 0.796858C9.09045 0.796858 6.24386 1.97595 4.14506 4.07475C2.04627 6.17355 0.867172 9.02013 0.867172 11.9883C0.867172 14.9564 2.04627 17.803 4.14506 19.9018C6.24386 22.0006 9.09045 23.1797 12.0586 23.1797C15.0267 23.1797 17.8733 22.0006 19.9721 19.9018C22.0709 17.803 23.25 14.9564 23.25 11.9883C23.25 9.02013 22.0709 6.17355 19.9721 4.07475ZM12.0586 21.6797C6.71485 21.6797 2.36719 17.3321 2.36719 11.9883C2.36719 6.64444 6.71475 2.29687 12.0586 2.29687C17.4024 2.29687 21.75 6.64444 21.75 11.9883C21.75 17.3321 17.4024 21.6797 12.0586 21.6797Z" fill="#6A38C0"/>
<path d="M10.372 14.3348L6.9308 10.8936L5.87016 11.9542L10.372 16.4561L18.2236 8.60456L17.1629 7.54392L10.372 14.3348Z" fill="#6A38C0"/>
</g>
<defs>
<clipPath id="clip0_4416_4346">
<rect width="24" height="24" fill="white"/>
</clipPath>
</defs>
</svg>
