<svg width="15" height="15" viewBox="0 0 15 15" fill="none" xmlns="http://www.w3.org/2000/svg">
<path d="M14.5956 6.49266C14.7638 6.36737 14.8885 6.19258 14.9524 5.99281C15.0162 5.79303 15.0159 5.57829 14.9516 5.37869C14.8872 5.17908 14.762 5.00463 14.5934 4.87979C14.4249 4.75495 14.2215 4.68599 14.0118 4.68256L9.93913 4.5287C9.9191 4.52732 9.8999 4.52018 9.88385 4.50814C9.86779 4.49609 9.85556 4.47966 9.84862 4.46083L8.44127 0.659623C8.37056 0.466232 8.24213 0.29924 8.07337 0.181258C7.90461 0.0632748 7.70367 0 7.49776 0C7.29185 0 7.09091 0.0632748 6.92215 0.181258C6.75338 0.29924 6.62496 0.466232 6.55425 0.659623L5.15142 4.4744C5.14449 4.49324 5.13225 4.50967 5.1162 4.52171C5.10014 4.53375 5.08094 4.5409 5.06092 4.54228L0.988198 4.69614C0.778501 4.69956 0.575134 4.76853 0.406611 4.89337C0.238089 5.01821 0.112863 5.19266 0.0484912 5.39226C-0.0158804 5.59186 -0.0161693 5.80661 0.0476652 6.00638C0.1115 6.20616 0.236256 6.38094 0.404442 6.50623L3.59926 9.01774C3.61525 9.03033 3.6272 9.04732 3.63364 9.06662C3.64007 9.08593 3.64071 9.10669 3.63546 9.12635L2.53583 13.0226C2.47885 13.221 2.48437 13.4321 2.55164 13.6273C2.61891 13.8224 2.74467 13.9921 2.91181 14.1133C3.07895 14.2344 3.27935 14.3012 3.48575 14.3044C3.69215 14.3076 3.89453 14.2472 4.06536 14.1313L7.44119 11.8686C7.45782 11.8572 7.47755 11.851 7.49776 11.851C7.51797 11.851 7.5377 11.8572 7.55432 11.8686L10.9302 14.1313C11.0987 14.2511 11.3003 14.3155 11.5071 14.3155C11.7139 14.3155 11.9156 14.2511 12.0841 14.1313C12.2513 14.0113 12.3771 13.8424 12.4444 13.6479C12.5117 13.4534 12.517 13.2429 12.4597 13.0452L11.351 9.1354C11.3451 9.11577 11.3455 9.09481 11.3519 9.07537C11.3584 9.05594 11.3707 9.03897 11.3872 9.02679L14.5956 6.49266Z" fill="#F9C511"/>
</svg>
