<svg width="14" height="16" viewBox="0 0 14 16" fill="none" xmlns="http://www.w3.org/2000/svg">
<path d="M6.90693 8.97901C7.86058 8.97901 8.63367 8.20593 8.63367 7.25228C8.63367 6.29863 7.86058 5.52555 6.90693 5.52555C5.95328 5.52555 5.1802 6.29863 5.1802 7.25228C5.1802 8.20593 5.95328 8.97901 6.90693 8.97901Z" fill="#9195A1"/>
<path fill-rule="evenodd" clip-rule="evenodd" d="M11.7909 2.02299C9.09355 -0.674331 4.72032 -0.674331 2.02299 2.02299C-0.674331 4.72032 -0.674331 9.09355 2.02299 11.7909L2.04213 11.8099L5.75502 15.5228C6.39124 16.1591 7.42275 16.1591 8.05897 15.5228L11.7909 11.7909C14.4882 9.09355 14.4882 4.7203 11.7909 2.02299ZM2.75558 2.75559C5.04831 0.462858 8.76556 0.462858 11.0583 2.75559C13.351 5.0483 13.351 8.76556 11.0583 11.0583L7.32638 14.7902C7.09476 15.0219 6.71923 15.0219 6.48761 14.7902L2.77331 11.0759L2.7719 11.0745L2.75558 11.0583C0.462858 8.76556 0.462858 5.04831 2.75558 2.75559Z" fill="#9195A1"/>
</svg>
