<svg width="21" height="21" viewBox="0 0 21 21" fill="none" xmlns="http://www.w3.org/2000/svg">
<path fill-rule="evenodd" clip-rule="evenodd" d="M0 3.25C0 1.45507 1.45507 0 3.25 0C5.04493 0 6.5 1.45507 6.5 3.25C6.5 4.78853 5.43094 6.07736 3.99514 6.41418C3.99835 6.44234 4 6.47098 4 6.5L4 14.5C4 14.529 3.99835 14.5577 3.99514 14.5858C5.43094 14.9226 6.5 16.2115 6.5 17.75C6.5 19.5449 5.04493 21 3.25 21C1.45507 21 0 19.5449 0 17.75C0 16.2115 1.06906 14.9226 2.50486 14.5858C2.50165 14.5577 2.5 14.529 2.5 14.5L2.5 6.5C2.5 6.47098 2.50165 6.44234 2.50486 6.41418C1.06906 6.07736 0 4.78853 0 3.25ZM3.25 1.5C2.2835 1.5 1.5 2.2835 1.5 3.25C1.5 4.2165 2.2835 5 3.25 5C4.2165 5 5 4.2165 5 3.25C5 2.2835 4.2165 1.5 3.25 1.5ZM3.25 16C2.2835 16 1.5 16.7835 1.5 17.75C1.5 18.7165 2.2835 19.5 3.25 19.5C4.2165 19.5 5 18.7165 5 17.75C5 16.7835 4.2165 16 3.25 16Z" fill="#28A745"/>
<path fill-rule="evenodd" clip-rule="evenodd" d="M17 14.587C15.5666 14.9255 14.5 16.2132 14.5 17.75C14.5 19.5449 15.9551 21 17.75 21C19.5449 21 21 19.5449 21 17.75C21 16.2132 19.9333 14.9255 18.5 14.587V6.25C18.5 4.17893 16.8211 2.5 14.75 2.5H10.6857L11.9053 1.28033C12.1982 0.987437 12.1982 0.512563 11.9053 0.21967C11.6124 -0.0732233 11.1376 -0.0732233 10.8447 0.21967L8.34467 2.71967C8.05178 3.01256 8.05178 3.48744 8.34467 3.78033L10.8447 6.28033C11.1376 6.57322 11.6124 6.57322 11.9053 6.28033C12.1982 5.98744 12.1982 5.51256 11.9053 5.21967L10.6857 4H14.75C15.9926 4 17 5.00736 17 6.25V14.587ZM16 17.75C16 16.7835 16.7835 16 17.75 16C18.7165 16 19.5 16.7835 19.5 17.75C19.5 18.7165 18.7165 19.5 17.75 19.5C16.7835 19.5 16 18.7165 16 17.75Z" fill="#28A745"/>
</svg>
