<svg width="72" height="24" viewBox="0 0 72 24" fill="none" xmlns="http://www.w3.org/2000/svg">
<g clip-path="url(#clip0_4405_4148)">
<path d="M17.613 15.516C19.0654 13.534 19.716 11.0767 19.4345 8.63572C19.1529 6.19471 17.9601 3.95001 16.0946 2.35069C14.2292 0.75138 11.8286 -0.0845965 9.37325 0.0100132C6.91788 0.104623 4.58877 1.12284 2.8519 2.86096C1.11502 4.59908 0.0984721 6.92891 0.0056194 9.38435C-0.0872333 11.8398 0.75046 14.2397 2.35111 16.1041C3.95176 17.9684 6.19731 19.1596 8.63852 19.4394C11.0797 19.7192 13.5366 19.0669 15.5175 17.613H15.516C15.561 17.673 15.609 17.73 15.663 17.7855L21.438 23.5605C21.7193 23.842 22.1008 24.0002 22.4987 24.0003C22.8966 24.0004 23.2783 23.8425 23.5597 23.5612C23.8412 23.28 23.9994 22.8984 23.9996 22.5005C23.9997 22.1026 23.8418 21.721 23.5605 21.4395L17.7855 15.6645C17.7319 15.6102 17.6742 15.5601 17.613 15.5145V15.516ZM18 9.75C18 10.8334 17.7866 11.9062 17.372 12.9071C16.9574 13.9081 16.3497 14.8175 15.5836 15.5836C14.8175 16.3497 13.9081 16.9574 12.9071 17.372C11.9062 17.7866 10.8334 18 9.75 18C8.66659 18 7.59379 17.7866 6.59286 17.372C5.59192 16.9574 4.68245 16.3497 3.91637 15.5836C3.15028 14.8175 2.54259 13.9081 2.12799 12.9071C1.71339 11.9062 1.5 10.8334 1.5 9.75C1.5 7.56196 2.36919 5.46354 3.91637 3.91637C5.46354 2.36919 7.56196 1.5 9.75 1.5C11.938 1.5 14.0365 2.36919 15.5836 3.91637C17.1308 5.46354 18 7.56196 18 9.75V9.75Z" fill="#0C64C6"/>
</g>
<path d="M64.3125 11.25H60.75V7.6875C60.75 7.58437 60.6656 7.5 60.5625 7.5H59.4375C59.3344 7.5 59.25 7.58437 59.25 7.6875V11.25H55.6875C55.5844 11.25 55.5 11.3344 55.5 11.4375V12.5625C55.5 12.6656 55.5844 12.75 55.6875 12.75H59.25V16.3125C59.25 16.4156 59.3344 16.5 59.4375 16.5H60.5625C60.6656 16.5 60.75 16.4156 60.75 16.3125V12.75H64.3125C64.4156 12.75 64.5 12.6656 64.5 12.5625V11.4375C64.5 11.3344 64.4156 11.25 64.3125 11.25Z" fill="#0C64C6"/>
<path d="M60 1.5C54.2016 1.5 49.5 6.20156 49.5 12C49.5 17.7984 54.2016 22.5 60 22.5C65.7984 22.5 70.5 17.7984 70.5 12C70.5 6.20156 65.7984 1.5 60 1.5ZM60 20.7188C55.1859 20.7188 51.2812 16.8141 51.2812 12C51.2812 7.18594 55.1859 3.28125 60 3.28125C64.8141 3.28125 68.7188 7.18594 68.7188 12C68.7188 16.8141 64.8141 20.7188 60 20.7188Z" fill="#0C64C6"/>
<defs>
<clipPath id="clip0_4405_4148">
<rect width="24" height="24" fill="white"/>
</clipPath>
</defs>
</svg>
