<svg width="18" height="18" viewBox="0 0 18 18" fill="none" xmlns="http://www.w3.org/2000/svg">
<path d="M9.00086 17.1137C13.4815 17.1137 17.1138 13.4814 17.1138 9.00077C17.1138 4.5201 13.4815 0.887795 9.00086 0.887795C4.52019 0.887795 0.887888 4.5201 0.887888 9.00077C0.887888 13.4814 4.52019 17.1137 9.00086 17.1137Z" fill="#F9F9F9"/>
<path d="M8.99997 1.79639C12.972 1.79639 16.2035 5.02798 16.2035 8.99997C16.2035 12.972 12.972 16.2035 8.99997 16.2035C5.02798 16.2035 1.79639 12.972 1.79639 8.99997C1.79639 5.02798 5.02778 1.79639 8.99997 1.79639ZM8.99997 0C4.02939 0 0 4.02939 0 8.99997C0 13.9706 4.02939 17.9999 8.99997 17.9999C13.9706 17.9999 17.9999 13.9706 17.9999 8.99997C17.9999 4.02939 13.9704 0 8.99997 0Z" fill="#F05425"/>
<path d="M8.99998 5.80638C10.761 5.80638 12.1936 7.23897 12.1936 8.99997C12.1936 10.761 10.761 12.1936 8.99998 12.1936C7.23899 12.1936 5.80639 10.761 5.80639 8.99997C5.80639 7.23897 7.23899 5.80638 8.99998 5.80638ZM8.99998 4.00998C6.24419 4.00998 4.01 6.24398 4.01 8.99997C4.01 11.756 6.24399 13.9899 8.99998 13.9899C11.756 13.9899 13.99 11.756 13.99 8.99997C13.99 6.24398 11.7558 4.00998 8.99998 4.00998Z" fill="#F05425"/>
<path d="M8.9999 8.00198C8.4487 8.00198 8.0019 8.44878 8.0019 8.99997C8.0019 9.55117 8.4487 9.99797 8.9999 9.99797C9.55109 9.99797 9.99789 9.55117 9.99789 8.99997C9.99789 8.44878 9.55089 8.00198 8.9999 8.00198Z" fill="#F05425"/>
<path d="M15.3533 2.69159C15.3227 2.68759 15.3573 2.72239 15.3533 2.69159L15.2525 2.22119L8.71831 8.71697C8.56211 8.87237 8.56131 9.12517 8.71691 9.28137C8.79491 9.35997 8.89731 9.39917 8.99991 9.39917C9.10171 9.39917 9.20351 9.36037 9.28131 9.28297L15.9357 2.66919L15.3533 2.69159Z" fill="#615E66"/>
<path fill-rule="evenodd" clip-rule="evenodd" d="M16.5548 1.34999L16.3856 0.0595926C16.3782 0.00339278 16.3094 -0.0200071 16.2694 0.0201927L14.9718 1.31759C14.9568 1.33259 14.9496 1.35379 14.9524 1.37479L15.1354 2.76938C15.1394 2.80018 15.1636 2.82438 15.1944 2.82838L16.589 3.01138C16.61 3.01418 16.6312 3.00698 16.6462 2.99198L17.9438 1.69439C17.984 1.65419 17.9606 1.58559 17.9044 1.57819L16.6138 1.40899C16.583 1.40479 16.5588 1.38079 16.5548 1.34999Z" fill="#4DD2F4"/>
</svg>
