<svg width="25" height="27" viewBox="0 0 25 27" fill="none" xmlns="http://www.w3.org/2000/svg">
<path d="M3.75 7.5C3.75 3.20682 7.89809 0 12.5 0C17.1019 0 21.25 3.20682 21.25 7.5V13.1736C21.25 13.9757 21.4874 14.7598 21.9323 15.4271L24.6814 19.5507C24.8891 19.8624 25 20.2285 25 20.603C25 21.6507 24.1507 22.5 23.103 22.5H1.89699C0.849312 22.5 0 21.6507 0 20.603C0 20.2285 0.110857 19.8624 0.318599 19.5507L3.0677 15.4271C3.5126 14.7598 3.75 13.9757 3.75 13.1736V7.5Z" fill="#0266D6"/>
<path d="M12.5001 26.875C10.5182 26.875 8.84412 25.5572 8.30627 23.75H16.6939C16.1561 25.5572 14.482 26.875 12.5001 26.875Z" fill="#0266D6"/>
</svg>
