<svg width="16" height="18" viewBox="0 0 16 18" fill="none" xmlns="http://www.w3.org/2000/svg">
<path fill-rule="evenodd" clip-rule="evenodd" d="M5.2631 14.9472C5.2631 16.4587 6.48842 17.684 7.99992 17.684C9.51142 17.684 10.7367 16.4587 10.7367 14.9472C10.7367 13.6531 9.83851 12.5688 8.63149 12.2836V9.26306H10.7367C12.4808 9.26306 13.8946 7.84924 13.8946 6.1052V5.40039C15.1016 5.11528 15.9998 4.03094 15.9998 2.73681C15.9998 1.22531 14.7745 0 13.263 0C11.7515 0 10.5262 1.22531 10.5262 2.73681C10.5262 4.03094 11.4244 5.11528 12.6314 5.40039V6.1052C12.6314 7.15162 11.7832 7.99992 10.7367 7.99992H5.2631C4.21668 7.99992 3.36839 7.15162 3.36839 6.1052V5.40039C4.57541 5.11528 5.47363 4.03094 5.47363 2.73681C5.47363 1.22531 4.24831 0 2.73681 0C1.22531 0 0 1.22531 0 2.73681C0 4.03094 0.898222 5.11528 2.10524 5.40039V6.1052C2.10524 7.84924 3.51906 9.26306 5.2631 9.26306H7.36835V12.2836C6.16133 12.5688 5.2631 13.6531 5.2631 14.9472ZM7.99992 16.4209C7.18603 16.4209 6.52625 15.7611 6.52625 14.9472C6.52625 14.1333 7.18603 13.4735 7.99992 13.4735C8.8138 13.4735 9.47359 14.1333 9.47359 14.9472C9.47359 15.7611 8.8138 16.4209 7.99992 16.4209ZM2.73681 4.21048C1.92293 4.21048 1.26314 3.5507 1.26314 2.73681C1.26314 1.92293 1.92293 1.26314 2.73681 1.26314C3.5507 1.26314 4.21048 1.92293 4.21048 2.73681C4.21048 3.5507 3.5507 4.21048 2.73681 4.21048ZM11.7894 2.73681C11.7894 3.5507 12.4491 4.21048 13.263 4.21048C14.0769 4.21048 14.7367 3.5507 14.7367 2.73681C14.7367 1.92293 14.0769 1.26314 13.263 1.26314C12.4491 1.26314 11.7894 1.92293 11.7894 2.73681Z" fill="#75839D"/>
</svg>
