<svg width="13" height="13" viewBox="0 0 13 13" fill="none" xmlns="http://www.w3.org/2000/svg">
<path fill-rule="evenodd" clip-rule="evenodd" d="M6.49983 0C6.87119 0 7.17224 0.301046 7.17224 0.672405V5.82751H12.3274C12.6988 5.82751 12.9998 6.12855 12.9998 6.49991C12.9998 6.87127 12.6988 7.17232 12.3274 7.17232H7.17224V12.3274C7.17224 12.6988 6.87119 12.9998 6.49983 12.9998C6.12848 12.9998 5.82743 12.6988 5.82743 12.3274V7.17232H0.672405C0.301046 7.17232 0 6.87127 0 6.49991C0 6.12855 0.301046 5.82751 0.672405 5.82751H5.82743V0.672405C5.82743 0.301046 6.12848 0 6.49983 0Z" fill="#0C64C6"/>
</svg>
